<?xml version="1.0" encoding="UTF-8"?>
<svg id="Layer_23" xmlns="http://www.w3.org/2000/svg" version="1.1" xmlns:xlink="http://www.w3.org/1999/xlink" viewBox="0 0 805.59 1026.72">
  <!-- Generator: Adobe Illustrator 29.1.0, SVG Export Plug-In . SVG Version: 2.1.0 Build 142)  -->
  <defs>
    <style>
      .st0 {
        stroke: #3e8580;
      }

      .st0, .st1, .st2 {
        fill: none;
      }

      .st0, .st2 {
        stroke-miterlimit: 10;
        stroke-width: 40px;
      }

      .st3 {
        fill: #11544c;
      }

      .st4 {
        clip-path: url(#clippath-1);
      }

      .st5 {
        fill: #123d3b;
      }

      .st6 {
        fill: #118481;
      }

      .st7 {
        fill: #3e8580;
      }

      .st2 {
        stroke: #c5e7e6;
      }

      .st8 {
        fill: #c5e7e6;
      }

      .st9 {
        fill: #177067;
      }

      .st10 {
        clip-path: url(#clippath);
      }
    </style>
    <clipPath id="clippath">
      <path class="st1" d="M133.51,287.58c-22.38,0-41.6-18.15-41.6-40.53s19.22-35.89,41.6-35.89,40.53,13.51,40.53,35.89-18.15,40.53-40.53,40.53Z"/>
    </clipPath>
    <clipPath id="clippath-1">
      <path class="st1" d="M233.32,264.97c-22.38,0-41.6-18.15-41.6-40.53s19.22-35.89,41.6-35.89,40.53,13.51,40.53,35.89-18.15,40.53-40.53,40.53Z"/>
    </clipPath>
  </defs>
  <g>
    <path class="st3" d="M342.13,645.01c15.08-58.35,58.44-97.6,96.84-87.68,38.4,9.93,57.3,65.27,42.22,123.62-15.08,58.35-51.28,68.05-83.39,35.66-27.92-28.17-70.75-13.26-55.67-71.61Z"/>
    <path class="st6" d="M476.57,791.66c-30.16,116.7-116.88,195.21-193.68,175.36-76.8-19.85-114.61-130.55-84.44-247.25,30.16-116.7,102.57-136.1,166.79-71.32,55.85,56.33,141.5,26.51,111.33,143.21Z"/>
    <path class="st9" d="M290.89,635.24c-8.13-42.47-15.43-82.79,27.28-84.94,78.24-3.94,33.11,37.82,56.72,68.87,26.18,34.42-4.08,80.5-27.28,84.94-23.19,4.44-48.59-26.39-56.72-68.87Z"/>
  </g>
  <path class="st9" d="M367.2,582.15c0-.78-.03-1.55-.07-2.32h.07v-76.21c0-34.56-13.73-67.71-38.17-92.14l-16.76-16.76c-24.44-24.44-38.17-57.58-38.17-92.14v-78.14h-82.37v112.27c0,34.56,13.73,67.7,38.16,92.14l16.78,16.78c24.44,24.44,38.16,57.58,38.16,92.14v42.08l.05,2.32c0,22.38,19.41,35.89,41.8,35.89s40.53-13.51,40.53-35.89Z"/>
  <path class="st6" d="M233.32,264.97c-22.38,0-41.6-18.15-41.6-40.53s19.22-35.89,41.6-35.89,40.53,13.51,40.53,35.89-18.15,40.53-40.53,40.53Z"/>
  <path class="st9" d="M326.67,601.31c21.12,0,38.64-12.06,40.53-32.22v-48.64c0-54.42-193.16-57.18-193.16-129.93v-141.15h-82.13v171.23c0,112.33,192.92,94.1,192.92,148.51h0c2,20.17,20.72,32.2,41.84,32.2Z"/>
  <path class="st6" d="M133.51,287.58c-22.38,0-41.6-18.15-41.6-40.53s19.22-35.89,41.6-35.89,40.53,13.51,40.53,35.89-18.15,40.53-40.53,40.53Z"/>
  <g class="st10">
    <path class="st5" d="M133.5,290.05c-21.91,0-40.72-15.03-40.72-33.57s18.81-29.73,40.72-29.73,39.67,11.19,39.67,29.73-17.76,33.57-39.67,33.57Z"/>
    <path class="st2" d="M123.62,307.34s1.54-27.11,9.58-61.39"/>
  </g>
  <g class="st4">
    <path class="st5" d="M233.31,267.44c-21.91,0-40.72-15.03-40.72-33.57s18.81-29.73,40.72-29.73,39.67,11.19,39.67,29.73-17.76,33.57-39.67,33.57Z"/>
    <path class="st2" d="M237.06,250.73c-8.04,34.28-9.58,61.39-9.58,61.39"/>
  </g>
  <g>
    <path class="st0" d="M573.3,182.56s155.08,112.35,89.2,253.74c-28.2,60.53-81.6,99.4-119.66,120.75"/>
    <path class="st7" d="M499.16,577.66c16.82-17.44,35.99-42.62,45.14-63.92l4.09,40.25,28.89,28.32c-22.35-6.16-53.99-6.9-78.11-4.65Z"/>
  </g>
  <g>
    <path class="st2" d="M133.21,245.95c11.78-50.19,37.83-114.81,92.73-134.22,119.72-42.33,223.51-6.71,278.34,20.92"/>
    <path class="st8" d="M545.73,157.4c-23.86-4.21-55.45-6.06-78.23-1.75l31.11-25.87,7.36-39.78c7.37,21.98,24.42,48.64,39.76,67.39Z"/>
  </g>
  <path class="st2" d="M320.23,92.71c-47.4,6.05-83.17,158.02-83.17,158.02"/>
</svg>