<?xml version="1.0" encoding="UTF-8"?>
<svg id="Layer_25" xmlns="http://www.w3.org/2000/svg" version="1.1" xmlns:xlink="http://www.w3.org/1999/xlink" viewBox="0 0 1262.1 747.49">
  <!-- Generator: Adobe Illustrator 29.1.0, SVG Export Plug-In . SVG Version: 2.1.0 Build 142)  -->
  <defs>
    <style>
      .st0 {
        fill: url(#linear-gradient2);
      }

      .st1 {
        fill: #072321;
      }

      .st2 {
        stroke: #29b2ab;
        stroke-miterlimit: 10;
        stroke-width: 10px;
      }

      .st2, .st3 {
        fill: none;
      }

      .st4 {
        fill: url(#linear-gradient1);
      }

      .st5 {
        fill: #7cb6b7;
      }

      .st6 {
        fill: url(#linear-gradient);
      }

      .st7 {
        clip-path: url(#clippath);
      }
    </style>
    <clipPath id="clippath">
      <path class="st3" d="M984.22,193.67c29.05-35.85,29.11-155.52,34.42-153.74l-110.71-17.11s13.94,40.03-21.98,105.84c-1.15-.55-2.29-1.11-3.45-1.66-179.46-84.71-249.03,157.19-413.28,187.21-81.81,14.95-317.96,64.62-269.56,251.95-35.34,33.15-65.8,84.63-65.8,84.63l78.13,68.57s14.28-34.2,75.35-68.85c186.1,71.73,600.99-6.97,669.33-69.61,72.07-66.07,173.5-250.85,27.54-387.22Z"/>
    </clipPath>
    <linearGradient id="linear-gradient" x1="625.93" y1="759.74" x2="625.93" y2="189.81" gradientUnits="userSpaceOnUse">
      <stop offset=".16" stop-color="#003d3b"/>
      <stop offset=".29" stop-color="#054240"/>
      <stop offset=".45" stop-color="#155150"/>
      <stop offset=".63" stop-color="#2f6b6a"/>
      <stop offset=".82" stop-color="#538e8e"/>
      <stop offset="1" stop-color="#7cb6b7"/>
    </linearGradient>
    <linearGradient id="linear-gradient1" x1="276.28" y1="587.92" x2="111.09" y2="766.15" gradientTransform="translate(620.36 115.23) rotate(53.34)" gradientUnits="userSpaceOnUse">
      <stop offset=".14" stop-color="#fff" stop-opacity="0"/>
      <stop offset=".19" stop-color="#fff" stop-opacity=".2"/>
      <stop offset=".27" stop-color="#fff" stop-opacity=".48"/>
      <stop offset=".34" stop-color="#fff" stop-opacity=".71"/>
      <stop offset=".4" stop-color="#fff" stop-opacity=".87"/>
      <stop offset=".44" stop-color="#fff" stop-opacity=".96"/>
      <stop offset=".47" stop-color="#fff"/>
    </linearGradient>
    <linearGradient id="linear-gradient2" x1="1090.95" y1="-239.21" x2="925.76" y2="-60.98" gradientTransform="translate(241.1 -672.05) rotate(53.34)" xlink:href="#linear-gradient1"/>
  </defs>
  <g class="st7">
    <path class="st5" d="M982.76,195.39c30.52-33.56,30.5-157.27,35.89-155.45l-110.71-17.11s15.44,44.31-28.01,116.34l102.83,56.23Z"/>
    <path class="st1" d="M304.18,641.57c-75.33,37.43-92.17,77.78-92.17,77.78l-78.13-68.57s63.73-107.7,113.76-111.86l56.55,102.65Z"/>
    <path class="st6" d="M882.51,127c-179.46-84.71-249.03,157.19-413.28,187.21-82.41,15.06-321.44,65.35-268.45,256.09,52.98,190.74,671.13,88.31,755.91,10.6,84.77-77.71,210.17-319.67-74.18-453.9Z"/>
    <path class="st1" d="M218.24,511.93c132.53,0,202.21-15.15,202.21-15.15,44.68,16.66,121.17,15.15,162.82,15.15v190.09H122.81v-190.09c132.53,0,202.21-15.15,202.21-15.15,44.68,16.66,121.17,15.15,162.82,15.15"/>
    <path class="st1" d="M678.69,511.93c132.53,0,202.21-15.15,202.21-15.15,44.68,16.66,121.17,15.15,162.82,15.15v190.09h-460.45v-190.09c132.53,0,202.21-15.15,202.21-15.15,44.68,16.66,121.17,15.15,162.82,15.15"/>
    <g>
      <circle class="st2" cx="515.47" cy="443.41" r="32.84"/>
      <circle class="st2" cx="227.5" cy="451.64" r="32.84"/>
      <circle class="st2" cx="874.33" cy="425.48" r="32.84"/>
      <circle class="st2" cx="625.93" cy="370.55" r="54.93"/>
      <circle class="st2" cx="296.02" cy="339.14" r="54.93"/>
      <circle class="st2" cx="801.13" cy="311.01" r="54.93"/>
      <circle class="st2" cx="472.24" cy="294.49" r="76.06"/>
      <circle class="st2" cx="961.61" cy="242.55" r="76.06"/>
      <circle class="st2" cx="797.13" cy="109.1" r="112.42"/>
      <circle class="st2" cx="583.66" cy="508.41" r="23.93"/>
      <circle class="st2" cx="313.45" cy="484.47" r="23.93"/>
      <circle class="st2" cx="797.13" cy="487.62" r="23.93"/>
      <circle class="st2" cx="519.01" cy="561.53" r="20.43"/>
      <circle class="st2" cx="260.33" cy="558" r="20.43"/>
      <circle class="st2" cx="841.5" cy="552.77" r="20.43"/>
    </g>
  </g>
  <rect class="st4" x="108.65" y="588.26" width="173.67" height="173.67" transform="translate(-462.81 428.88) rotate(-53.34)"/>
  <rect class="st0" x="879.32" y="-39.27" width="173.67" height="173.67" transform="translate(1208.38 -888.94) rotate(101.68)"/>
</svg>