<?xml version="1.0" encoding="UTF-8"?>
<svg id="Layer_24" xmlns="http://www.w3.org/2000/svg" version="1.1" xmlns:xlink="http://www.w3.org/1999/xlink" viewBox="0 0 1262.1 747.49">
  <!-- Generator: Adobe Illustrator 29.1.0, SVG Export Plug-In . SVG Version: 2.1.0 Build 142)  -->
  <defs>
    <style>
      .st0 {
        fill: #29b2ab;
      }

      .st1 {
        stroke: #c0ddda;
      }

      .st1, .st2, .st3 {
        fill: none;
      }

      .st1, .st3 {
        stroke-miterlimit: 10;
        stroke-width: 100px;
      }

      .st4 {
        fill: #82adaa;
      }

      .st5 {
        fill: #94c4bf;
      }

      .st6 {
        fill: url(#linear-gradient1);
      }

      .st3 {
        stroke: #d6eeef;
      }

      .st7 {
        fill: #b8e1d8;
      }

      .st8 {
        fill: #91afa7;
      }

      .st9 {
        fill: url(#linear-gradient);
      }

      .st10 {
        fill: #177067;
      }

      .st11 {
        fill: #a3dad7;
      }

      .st12 {
        clip-path: url(#clippath);
      }
    </style>
    <clipPath id="clippath">
      <path class="st2" d="M1141.39,362.62c0,113.43-48.5,204.43-48.5,204.43,0,0-698.35,17.92-798.35,20.51-7.38.19-12.3.32-14.36.37h-.02c-.36,0-104.72,0-105.08-.02-100.52-2.41-77.34-95.39-77.34-209.72s-19.7-207.32,80.82-209.73l100.52-1c57.58-5.67,115.81-11.87,665.29-9.81,3.86-.26,193.1-.4,197.02-.4v205.37Z"/>
    </clipPath>
    <linearGradient id="linear-gradient" x1="815.18" y1="360.14" x2="1196.54" y2="360.14" gradientUnits="userSpaceOnUse">
      <stop offset="0" stop-color="#fff" stop-opacity="0"/>
      <stop offset=".32" stop-color="#fff" stop-opacity=".45"/>
      <stop offset=".61" stop-color="#fff" stop-opacity=".84"/>
      <stop offset=".74" stop-color="#fff"/>
    </linearGradient>
    <linearGradient id="linear-gradient1" x1="101.02" y1="396.49" x2="482.38" y2="396.49" gradientTransform="translate(-23.56 -36.35)" xlink:href="#linear-gradient"/>
  </defs>
  <path class="st10" d="M1141.39,362.62c0,113.43-82.99,205.38-185.35,205.38-9.99,2.59-561.5,16.97-661.5,19.56-7.38.19-12.3.32-14.36.37h-.02c-.36,0-.72,0-1.08-.02-100.52-2.41-181.34-95.39-181.34-209.72s80.82-207.32,181.34-209.73v-1c57.58-5.67,115.81-11.87,665.29-9.81,3.86-.26,7.75-.4,11.67-.4,102.36,0,185.35,91.95,185.35,205.37Z"/>
  <g class="st12">
    <rect class="st0" x="124.36" y="145.42" width="978.39" height="81.89"/>
    <rect class="st0" x="122.43" y="523.62" width="978.39" height="81.89" transform="translate(-19.65 22.06) rotate(-2.03)"/>
    <path class="st1" d="M1149.86,331.31c-487.38-20.57-651.96-26.9-1077.63,31.65"/>
    <path class="st11" d="M990.8,260.25s-.35-4.76,7.51-6.09,14.52,15.16,26.42,19.41c11.9,4.25,33.41-14.79,53-14.26,19.59.53,29.95,20.68,46.43,21.04,16.48.35,20.54-16.01,29.48-14.6,8.95,1.4,31.49-11.53,54.94,8.49-22.82,6.99-22.37,26.27-39.33,34.19-16.96,7.92-83.67,14.75-74.38-.71,9.29-15.47-21.95,20.63-48.67,12.61-20.01-6-41.85-68.07-55.4-60.07Z"/>
    <path class="st5" d="M848.92,313.55s-.9-6.18,8.73-8.71c9.64-2.53,19.02,20.99,34.75,22.68,12.97,1.39,82.21-24.88,114.82-11.11,18.93,8,33.36-13.08,44.62-12.16s37.99-18.24,69.12,5.53c-27.67,11.43-25.2,36.58-45.5,48.63-20.29,12.05-102.53,27.73-92.51,6.59,10.02-21.14-25.24,29.17-59.25,21.4-25.46-5.81-58.75-84.68-74.79-72.86Z"/>
    <path class="st11" d="M166.86,253.86s-1.12-8.98,12.91-12.35,27.75,27.14,49.65,33.91c21.9,6.76,58.71-31.66,94.08-32.78,35.37-1.12,56.15,35.93,85.9,34.81,29.76-1.12,35.37-32.56,51.65-30.88s55.58-25.27,99.94,10.11c-40.42,15.72-37.62,52.22-67.37,69.06-29.76,16.84-149.35,37.06-134.19,6.74,15.16-30.32-37.45,41.48-86.46,29.2-36.7-9.2-82.52-124.44-106.12-107.8Z"/>
    <path class="st4" d="M864.77,239.15s.01-5.93-9.38-7-15.87,19.86-29.57,26.01c-13.69,6.14-40.7-15.89-63.78-13.8s-33.63,27.84-53.06,29.49c-19.43,1.65-25.59-18.34-36.04-15.95-10.45,2.4-38.15-11.98-64.16,14.55,27.53,6.99,28.62,30.94,49.31,39.51,20.69,8.57,104.27,8.62,138.71-9.96,24.42-13.18,58.88-66.71,67.97-62.86Z"/>
    <path class="st5" d="M369.59,310.03s-.91-7.32,10.52-10.06c11.43-2.74,21.93,25.24,40.44,27.62,15.27,1.96,108.48-15.41,146.62,1.65,22.14,9.91,28.81-26.53,42.08-25.16s45.28-20.58,81.41,8.23c-32.93,12.81-30.64,42.54-54.88,56.26-24.24,13.72-121.66,30.19-109.31,5.49,12.35-24.7-30.5,33.79-70.44,23.78-29.89-7.49-67.22-101.37-86.44-87.82Z"/>
    <path class="st3" d="M1142.42,388.92c-485.3,49.46-649.21,65.55-1077.61,32.36"/>
    <path class="st11" d="M551.72,390.39s.96-7.69-11.05-10.57-23.76,23.24-42.5,29.03c-18.75,5.79-50.26-27.1-80.54-28.06s-48.06,30.76-73.54,29.8-30.28-27.88-44.22-26.44c-13.94,1.44-47.58-21.63-85.56,8.65,34.61,13.46,32.2,44.7,57.68,59.12,25.47,14.42,127.85,31.72,114.88,5.77-12.98-25.96,32.06,35.51,74.02,24.99,31.42-7.87,70.64-106.53,90.84-92.28Z"/>
    <path class="st5" d="M166.43,443.94s-.65-5.22,7.5-7.18c8.15-1.96,15.64,18,28.84,19.7,10.89,1.4,77.37-10.99,104.57,1.18,15.79,7.07,20.55-18.92,30.01-17.94s32.29-14.68,58.06,5.87c-23.49,9.13-21.86,30.34-39.14,40.12s-86.77,21.53-77.96,3.91-21.76,24.1-50.23,16.96c-21.32-5.34-47.94-72.3-61.65-62.63Z"/>
    <path class="st5" d="M524.52,444.8s-.82-5.62,7.94-7.92,17.3,19.09,31.61,20.63c11.8,1.27,74.78-22.63,104.44-10.1,17.22,7.28,30.34-11.9,40.59-11.06s34.56-16.59,62.87,5.03c-25.17,10.4-22.93,33.27-41.38,44.24-18.46,10.96-93.26,25.23-84.14,6,9.12-19.23-22.96,26.53-53.89,19.47-23.16-5.29-53.44-77.03-68.03-66.27Z"/>
    <path class="st4" d="M546.46,364.81s-.92-7.39,10.62-10.15,22.81,22.31,40.82,27.87c18,5.56,48.27-26.03,77.35-26.95,29.08-.92,46.16,29.54,70.62,28.62,24.46-.92,29.08-26.77,42.47-25.39,13.39,1.38,45.7-20.77,82.16,8.31-33.23,12.92-30.93,42.93-55.39,56.77-24.46,13.85-128.59,26.7-174.34,8.82-32.44-12.68-83.57-74.1-94.3-67.91Z"/>
    <path class="st5" d="M1159.29,367.6s.42-9.56-14.65-11.92c-15.07-2.36-25.74,34.92-49.44,39.92-19.54,4.13-141.9-8.66-189.45,17.37-27.61,15.11-40.02-31.31-57.03-28.16s-60.7-21.91-104.43,19.11c43.92,13.14,44.05,51.83,76.82,67.05,32.78,15.23,160.48,26.4,141.94-4.26-18.54-30.66,42.96,40.53,93.56,23.44,37.88-12.79,76.4-138.09,102.67-122.55Z"/>
  </g>
  <polygon class="st7" points="209.1 428.54 209.44 436.03 202.02 435.04 208.08 439.44 202.68 444.62 209.9 442.63 210.59 450.08 213.52 443.19 219.79 447.31 216.23 440.71 223.35 438.38 215.98 437.05 218.59 430.03 212.96 434.97 209.1 428.54"/>
  <polygon class="st7" points="564.13 428.37 564.47 435.86 557.05 434.87 563.11 439.27 557.71 444.45 564.93 442.46 565.61 449.92 568.55 443.02 574.81 447.14 571.26 440.54 578.38 438.21 571 436.88 573.62 429.86 567.98 434.8 564.13 428.37"/>
  <polygon class="st7" points="901.18 384.46 901.53 391.95 894.1 390.96 900.16 395.35 894.76 400.54 901.98 398.54 902.67 406 905.61 399.11 911.87 403.23 908.31 396.63 915.43 394.3 908.06 392.97 910.68 385.95 905.04 390.89 901.18 384.46"/>
  <polygon class="st8" points="219.39 349.95 219.73 357.43 212.3 356.44 218.37 360.84 212.96 366.03 220.18 364.03 220.87 371.49 223.81 364.6 230.07 368.71 226.51 362.12 233.63 359.79 226.26 358.46 228.88 351.44 223.24 356.37 219.39 349.95"/>
  <polygon class="st8" points="346.51 354.43 346.85 361.92 339.42 360.93 345.49 365.33 340.08 370.51 347.3 368.52 347.99 375.97 350.93 369.08 357.19 373.2 353.63 366.6 360.75 364.27 353.38 362.94 356 355.92 350.36 360.86 346.51 354.43"/>
  <polygon class="st8" points="755.04 341.11 755.38 348.59 747.96 347.6 754.02 352 748.62 357.19 755.84 355.19 756.53 362.65 759.46 355.76 765.72 359.87 762.17 353.27 769.29 350.94 761.92 349.61 764.53 342.59 758.9 347.53 755.04 341.11"/>
  <polygon class="st8" points="906.63 295.06 906.97 302.54 899.55 301.55 905.61 305.95 900.21 311.14 907.43 309.14 908.11 316.6 911.05 309.71 917.31 313.82 913.76 307.23 920.88 304.9 913.51 303.57 916.12 296.55 910.49 301.48 906.63 295.06"/>
  <polygon class="st8" points="715.05 339.85 715.39 347.33 707.97 346.34 714.03 350.74 708.63 355.93 715.85 353.93 716.54 361.39 719.47 354.5 725.74 358.61 722.18 352.02 729.3 349.69 721.93 348.36 724.54 341.34 718.91 346.27 715.05 339.85"/>
  <polygon class="st8" points="194.77 330.89 194.98 335.43 190.47 334.82 194.15 337.49 190.87 340.64 195.25 339.43 195.67 343.95 197.45 339.77 201.25 342.27 199.09 338.27 203.41 336.85 198.94 336.05 200.53 331.79 197.11 334.78 194.77 330.89"/>
  <polygon class="st8" points="335.87 340.39 336.08 344.93 331.57 344.33 335.25 347 331.97 350.15 336.35 348.94 336.77 353.46 338.55 349.28 342.35 351.78 340.2 347.78 344.51 346.36 340.04 345.55 341.63 341.3 338.21 344.29 335.87 340.39"/>
  <polygon class="st8" points="740.63 323 740.84 327.54 736.33 326.94 740.01 329.6 736.73 332.75 741.11 331.54 741.53 336.06 743.31 331.88 747.11 334.38 744.95 330.38 749.27 328.97 744.8 328.16 746.39 323.9 742.97 326.89 740.63 323"/>
  <polygon class="st8" points="930.79 281.91 931 286.45 926.5 285.85 930.17 288.52 926.9 291.66 931.28 290.45 931.69 294.98 933.48 290.8 937.27 293.29 935.12 289.29 939.44 287.88 934.96 287.07 936.55 282.81 933.13 285.8 930.79 281.91"/>
  <polygon class="st8" points="354 323.1 354.21 327.64 349.71 327.04 353.39 329.71 350.11 332.85 354.49 331.64 354.9 336.17 356.69 331.99 360.48 334.48 358.33 330.48 362.65 329.07 358.17 328.26 359.76 324 356.34 326.99 354 323.1"/>
  <polygon class="st8" points="215.52 319.34 215.64 321.99 213.01 321.64 215.16 323.2 213.24 325.04 215.8 324.33 216.05 326.98 217.09 324.54 219.31 326 218.05 323.66 220.58 322.83 217.96 322.36 218.89 319.87 216.89 321.62 215.52 319.34"/>
  <polygon class="st8" points="332.76 305.56 332.88 308.22 330.24 307.87 332.39 309.43 330.48 311.27 333.04 310.56 333.28 313.21 334.33 310.76 336.55 312.22 335.29 309.88 337.81 309.05 335.2 308.58 336.13 306.09 334.12 307.84 332.76 305.56"/>
  <polygon class="st8" points="783.53 338.21 783.65 340.86 781.02 340.51 783.17 342.07 781.25 343.91 783.81 343.2 784.06 345.85 785.1 343.41 787.32 344.87 786.06 342.53 788.59 341.7 785.97 341.23 786.9 338.74 784.9 340.49 783.53 338.21"/>
  <polygon class="st8" points="772.86 321.78 772.98 324.44 770.34 324.09 772.5 325.65 770.58 327.49 773.14 326.78 773.39 329.43 774.43 326.98 776.65 328.44 775.39 326.1 777.91 325.27 775.3 324.8 776.23 322.31 774.23 324.06 772.86 321.78"/>
  <polygon class="st8" points="898.07 280.7 898.19 283.35 895.56 283 897.71 284.56 895.79 286.4 898.35 285.69 898.6 288.34 899.64 285.89 901.86 287.35 900.6 285.01 903.13 284.19 900.51 283.71 901.44 281.22 899.44 282.97 898.07 280.7"/>
  <polygon class="st8" points="958.94 293.32 959.06 295.97 956.43 295.62 958.58 297.18 956.66 299.02 959.23 298.32 959.47 300.96 960.51 298.52 962.73 299.98 961.47 297.64 964 296.81 961.38 296.34 962.31 293.85 960.31 295.6 958.94 293.32"/>
  <polygon class="st8" points="691.76 324.23 691.88 326.88 689.25 326.53 691.4 328.09 689.48 329.93 692.04 329.22 692.29 331.87 693.33 329.43 695.55 330.89 694.29 328.55 696.82 327.72 694.2 327.25 695.13 324.76 693.13 326.51 691.76 324.23"/>
  <polygon class="st8" points="195.57 305.62 195.69 308.28 193.06 307.93 195.21 309.49 193.29 311.33 195.86 310.62 196.1 313.27 197.14 310.82 199.36 312.28 198.1 309.94 200.63 309.11 198.01 308.64 198.94 306.15 196.94 307.9 195.57 305.62"/>
  <polygon class="st7" points="189.16 414.64 189.36 419.05 184.99 418.46 188.56 421.05 185.37 424.11 189.62 422.93 190.03 427.32 191.76 423.27 195.45 425.69 193.35 421.81 197.54 420.44 193.2 419.65 194.75 415.52 191.43 418.42 189.16 414.64"/>
  <polygon class="st7" points="546.66 409.05 546.86 413.46 542.49 412.88 546.06 415.47 542.88 418.52 547.13 417.34 547.54 421.74 549.27 417.68 552.95 420.1 550.86 416.22 555.05 414.85 550.71 414.06 552.25 409.93 548.93 412.83 546.66 409.05"/>
  <polygon class="st7" points="920.05 369.86 920.25 374.27 915.88 373.69 919.45 376.28 916.27 379.33 920.52 378.16 920.92 382.55 922.65 378.49 926.34 380.91 924.25 377.03 928.44 375.66 924.1 374.87 925.64 370.74 922.32 373.65 920.05 369.86"/>
  <polygon class="st7" points="215.51 411.61 215.63 414.28 212.98 413.93 215.15 415.5 213.22 417.35 215.8 416.64 216.04 419.3 217.09 416.84 219.33 418.31 218.06 415.95 220.6 415.12 217.97 414.65 218.9 412.14 216.89 413.9 215.51 411.61"/>
  <polygon class="st7" points="566.05 395.42 566.17 398.09 563.52 397.74 565.68 399.31 563.75 401.16 566.33 400.45 566.58 403.11 567.63 400.65 569.87 402.12 568.6 399.76 571.14 398.93 568.51 398.46 569.44 395.95 567.43 397.71 566.05 395.42"/>
  <polygon class="st7" points="598.75 420.73 598.87 423.41 596.22 423.05 598.39 424.63 596.46 426.48 599.04 425.77 599.28 428.43 600.33 425.97 602.57 427.44 601.3 425.08 603.84 424.25 601.21 423.77 602.14 421.27 600.13 423.03 598.75 420.73"/>
  <polygon class="st7" points="887.37 368.74 887.5 371.41 884.84 371.06 887.01 372.63 885.08 374.48 887.66 373.77 887.91 376.44 888.96 373.97 891.19 375.44 889.92 373.09 892.47 372.25 889.83 371.78 890.77 369.27 888.75 371.03 887.37 368.74"/>
  <polygon class="st7" points="958.93 374.46 959.06 377.14 956.4 376.78 958.57 378.35 956.64 380.21 959.22 379.49 959.46 382.16 960.52 379.7 962.75 381.17 961.48 378.81 964.03 377.98 961.39 377.5 962.33 374.99 960.31 376.76 958.93 374.46"/>
  <rect class="st9" x="815.18" y="116.85" width="381.36" height="486.59"/>
  <rect class="st6" x="77.45" y="116.85" width="381.36" height="486.59" transform="translate(536.27 720.29) rotate(-180)"/>
</svg>