<?xml version="1.0" encoding="UTF-8"?>
<svg id="Layer_22" xmlns="http://www.w3.org/2000/svg" version="1.1" xmlns:xlink="http://www.w3.org/1999/xlink" viewBox="0 0 1074.96 1026.72">
  <!-- Generator: Adobe Illustrator 29.1.0, SVG Export Plug-In . SVG Version: 2.1.0 Build 142)  -->
  <defs>
    <style>
      .st0 {
        fill: url(#linear-gradient2);
      }

      .st1 {
        fill: #072321;
      }

      .st2 {
        fill: url(#linear-gradient1);
      }

      .st3, .st4 {
        fill: none;
      }

      .st5 {
        clip-path: url(#clippath-1);
      }

      .st4 {
        stroke: url(#linear-gradient4);
        stroke-miterlimit: 10;
        stroke-width: 40px;
      }

      .st6 {
        fill: url(#linear-gradient5);
      }

      .st7 {
        fill: url(#linear-gradient3);
      }

      .st8 {
        fill: #b8e1d8;
      }

      .st9 {
        fill: url(#linear-gradient);
      }

      .st10 {
        clip-path: url(#clippath);
      }
    </style>
    <linearGradient id="linear-gradient" x1="289.31" y1="985.69" x2="289.31" y2="814.9" gradientUnits="userSpaceOnUse">
      <stop offset=".35" stop-color="#7cb6b7" stop-opacity="0"/>
      <stop offset=".49" stop-color="#598a8b" stop-opacity=".29"/>
      <stop offset=".79" stop-color="#1c3e3c" stop-opacity=".81"/>
      <stop offset="1" stop-color="#072321"/>
    </linearGradient>
    <linearGradient id="linear-gradient1" x1="700.19" y1="985.69" x2="700.19" y2="814.9" gradientTransform="translate(1302.06) rotate(-180) scale(1 -1)" xlink:href="#linear-gradient"/>
    <linearGradient id="linear-gradient2" x1="246.6" y1="833.16" x2="246.6" y2="96.57" gradientUnits="userSpaceOnUse">
      <stop offset=".16" stop-color="#003d3b"/>
      <stop offset=".29" stop-color="#054240"/>
      <stop offset=".45" stop-color="#155150"/>
      <stop offset=".63" stop-color="#2f6b6a"/>
      <stop offset=".82" stop-color="#538e8e"/>
      <stop offset="1" stop-color="#7cb6b7"/>
    </linearGradient>
    <linearGradient id="linear-gradient3" x1="653.43" y1="830.05" x2="653.43" y2="93.46" xlink:href="#linear-gradient2"/>
    <clipPath id="clippath">
      <path class="st3" d="M149.74,177.32C10.56,454.77,69.85,725.44,126.1,788.87c56.25,63.43,281.24,67.02,244.14-86.17-37.1-153.19-108.91-191.48-102.92-213.02,5.98-21.54,179.51-186.69,160.37-257.3-19.15-70.61-184.9-240.55-277.95-55.05Z"/>
    </clipPath>
    <clipPath id="clippath-1">
      <path class="st3" d="M750.3,177.32c139.17,277.45,79.88,548.12,23.64,611.55-56.25,63.43-281.24,67.02-244.14-86.17,37.1-153.19,108.91-191.48,102.92-213.02-5.98-21.54-179.51-186.69-160.37-257.3,19.15-70.61,184.9-240.55,277.95-55.05Z"/>
    </clipPath>
    <linearGradient id="linear-gradient4" x1="934.87" y1="872.32" x2="934.87" y2="90.65" gradientUnits="userSpaceOnUse">
      <stop offset="0" stop-color="#072321"/>
      <stop offset=".13" stop-color="#0b2826"/>
      <stop offset=".31" stop-color="#173736"/>
      <stop offset=".5" stop-color="#2c5150"/>
      <stop offset=".7" stop-color="#487575"/>
      <stop offset=".92" stop-color="#6ca2a3"/>
      <stop offset="1" stop-color="#7cb6b7"/>
    </linearGradient>
    <linearGradient id="linear-gradient5" x1="955.2" y1="872.32" x2="955.2" y2="90.65" xlink:href="#linear-gradient4"/>
  </defs>
  <g>
    <path class="st9" d="M211.44,827.3c12.76,66.54,122.82,158.39,122.82,158.39l32.93-31.2c-49.39-45.06-95.95-92.03-104.3-124.44-8.35-32.41-51.44-2.76-51.44-2.76Z"/>
    <path class="st2" d="M679.74,827.3c-12.76,66.54-122.82,158.39-122.82,158.39l-32.93-31.2c49.39-45.06,95.95-92.03,104.3-124.44,8.35-32.41,51.44-2.76,51.44-2.76Z"/>
  </g>
  <g>
    <g>
      <path class="st0" d="M149.74,177.32C10.56,454.77,69.85,725.44,126.1,788.87c56.25,63.43,281.24,67.02,244.14-86.17-37.1-153.19-108.91-191.48-102.92-213.02,5.98-21.54,179.51-186.69,160.37-257.3-19.15-70.61-184.9-240.55-277.95-55.05Z"/>
      <path class="st7" d="M750.3,177.32c139.17,277.45,79.88,548.12,23.64,611.55-56.25,63.43-281.24,67.02-244.14-86.17,37.1-153.19,108.91-191.48,102.92-213.02-5.98-21.54-179.51-186.69-160.37-257.3,19.15-70.61,184.9-240.55,277.95-55.05Z"/>
    </g>
    <g>
      <g class="st10">
        <path class="st1" d="M73.75,639.97c132.53,0,202.21-15.15,202.21-15.15,44.68,16.66,121.17,15.15,162.82,15.15v190.09H-21.67v-190.09c132.53,0,202.21-15.15,202.21-15.15,44.68,16.66,121.17,15.15,162.82,15.15"/>
      </g>
      <g class="st5">
        <path class="st1" d="M553.9,639.97c132.53,0,202.21-15.15,202.21-15.15,44.68,16.66,121.17,15.15,162.82,15.15v190.09h-460.45v-190.09c132.53,0,202.21-15.15,202.21-15.15,44.68,16.66,121.17,15.15,162.82,15.15"/>
      </g>
    </g>
    <g>
      <polygon class="st8" points="137.95 674.89 132 674.62 132.79 680.53 129.29 675.7 125.16 680 126.75 674.26 120.82 673.71 126.3 671.37 123.03 666.39 128.27 669.22 130.13 663.56 131.18 669.42 136.77 667.34 132.84 671.82 137.95 674.89"/>
      <polygon class="st8" points="117.06 661.31 109.58 660.97 110.57 668.39 106.17 662.33 100.98 667.73 102.98 660.51 95.52 659.83 102.41 656.89 98.3 650.63 104.89 654.18 107.22 647.06 108.55 654.44 115.57 651.82 110.64 657.46 117.06 661.31"/>
      <polygon class="st8" points="175.61 655.9 168.13 655.56 169.12 662.99 164.72 656.92 159.53 662.33 161.53 655.11 154.07 654.42 160.96 651.48 156.85 645.22 163.44 648.78 165.77 641.66 167.1 649.03 174.12 646.41 169.19 652.05 175.61 655.9"/>
      <polygon class="st8" points="210.86 580.21 203.38 579.87 204.36 587.29 199.97 581.23 194.78 586.63 196.78 579.41 189.32 578.72 196.21 575.79 192.09 569.52 198.69 573.08 201.02 565.96 202.35 573.33 209.37 570.71 204.44 576.35 210.86 580.21"/>
      <polygon class="st8" points="112.78 685.24 110.1 685.12 110.46 687.77 108.89 685.6 107.04 687.53 107.75 684.95 105.09 684.71 107.55 683.66 106.08 681.43 108.43 682.69 109.26 680.15 109.74 682.78 112.24 681.85 110.48 683.86 112.78 685.24"/>
      <polygon class="st8" points="121.56 701.87 118.89 701.75 119.25 704.4 117.68 702.24 115.83 704.17 116.54 701.59 113.88 701.35 116.34 700.3 114.87 698.06 117.22 699.33 118.05 696.79 118.53 699.42 121.03 698.49 119.27 700.5 121.56 701.87"/>
      <polygon class="st8" points="101.1 619.94 98.43 619.82 98.78 622.47 97.21 620.3 95.36 622.23 96.08 619.66 93.41 619.41 95.87 618.36 94.41 616.13 96.76 617.4 97.59 614.86 98.07 617.49 100.57 616.55 98.81 618.56 101.1 619.94"/>
      <polygon class="st8" points="160.09 684.84 158.53 684.77 158.73 686.32 157.82 685.06 156.73 686.18 157.15 684.68 155.59 684.53 157.03 683.92 156.17 682.61 157.55 683.36 158.04 681.87 158.31 683.41 159.78 682.86 158.75 684.04 160.09 684.84"/>
      <polygon class="st8" points="127.52 573.6 125.96 573.53 126.17 575.08 125.25 573.81 124.17 574.94 124.58 573.43 123.03 573.29 124.46 572.68 123.61 571.37 124.98 572.11 125.47 570.63 125.75 572.16 127.21 571.62 126.18 572.79 127.52 573.6"/>
      <polygon class="st8" points="137.08 653.25 135.95 653.19 136.1 654.32 135.43 653.4 134.65 654.22 134.95 653.13 133.82 653.02 134.86 652.58 134.24 651.63 135.24 652.17 135.59 651.09 135.79 652.21 136.85 651.81 136.11 652.66 137.08 653.25"/>
      <polygon class="st8" points="93.58 532.37 92.44 532.32 92.59 533.44 91.93 532.52 91.14 533.34 91.45 532.25 90.32 532.15 91.36 531.7 90.74 530.75 91.74 531.29 92.09 530.21 92.29 531.33 93.35 530.93 92.6 531.79 93.58 532.37"/>
      <polygon class="st8" points="162.75 729.3 162.48 735.25 168.39 734.46 163.56 737.96 167.86 742.09 162.12 740.5 161.57 746.43 159.24 740.95 154.26 744.22 157.08 738.98 151.42 737.12 157.28 736.06 155.2 730.48 159.69 734.41 162.75 729.3"/>
      <polygon class="st8" points="180.65 600.07 180.38 606.02 186.28 605.23 181.46 608.73 185.76 612.86 180.01 611.27 179.47 617.2 177.13 611.72 172.15 614.99 174.98 609.75 169.31 607.9 175.18 606.84 173.1 601.25 177.58 605.18 180.65 600.07"/>
      <polygon class="st8" points="262.34 675.61 262.07 681.56 267.98 680.77 263.15 684.27 267.45 688.4 261.71 686.81 261.16 692.74 258.82 687.26 253.84 690.53 256.67 685.29 251.01 683.44 256.87 682.38 254.79 676.79 259.28 680.72 262.34 675.61"/>
      <polygon class="st8" points="307.51 676.87 307.24 682.83 313.15 682.04 308.32 685.54 312.62 689.66 306.88 688.07 306.33 694.01 303.99 688.53 299.01 691.8 301.84 686.55 296.18 684.7 302.04 683.64 299.96 678.06 304.44 681.98 307.51 676.87"/>
      <polygon class="st8" points="271.48 540.3 271.2 546.25 277.11 545.46 272.29 548.96 276.58 553.09 270.84 551.5 270.29 557.43 267.96 551.95 262.98 555.22 265.8 549.98 260.14 548.12 266.01 547.06 263.92 541.48 268.41 545.4 271.48 540.3"/>
      <polygon class="st8" points="149.17 750.19 148.83 757.67 156.26 756.68 150.19 761.08 155.6 766.27 148.38 764.27 147.69 771.73 144.75 764.84 138.49 768.95 142.05 762.36 134.93 760.03 142.3 758.69 139.68 751.68 145.32 756.61 149.17 750.19"/>
      <polygon class="st8" points="143.77 691.64 143.43 699.12 150.85 698.13 144.79 702.53 150.19 707.72 142.97 705.72 142.28 713.18 139.35 706.29 133.08 710.4 136.64 703.81 129.52 701.48 136.89 700.15 134.27 693.13 139.91 698.06 143.77 691.64"/>
      <polygon class="st8" points="173.1 754.47 172.98 757.14 175.63 756.79 173.47 758.36 175.39 760.21 172.82 759.5 172.57 762.16 171.52 759.7 169.29 761.17 170.56 758.82 168.02 757.99 170.65 757.51 169.71 755.01 171.73 756.77 173.1 754.47"/>
      <polygon class="st8" points="164.41 780.05 164.29 782.72 166.94 782.36 164.78 783.93 166.7 785.78 164.13 785.07 163.88 787.73 162.83 785.27 160.6 786.74 161.87 784.39 159.33 783.56 161.96 783.08 161.02 780.58 163.04 782.34 164.41 780.05"/>
      <polygon class="st8" points="172.71 707.16 172.64 708.72 174.19 708.52 172.92 709.43 174.05 710.52 172.54 710.1 172.4 711.66 171.78 710.22 170.48 711.08 171.22 709.7 169.73 709.21 171.27 708.94 170.73 707.47 171.9 708.5 172.71 707.16"/>
      <polygon class="st8" points="141.11 730.17 141.06 731.3 142.18 731.15 141.26 731.82 142.08 732.6 140.99 732.3 140.88 733.43 140.44 732.39 139.49 733.01 140.03 732.01 138.95 731.66 140.07 731.46 139.67 730.4 140.53 731.14 141.11 730.17"/>
      <polygon class="st8" points="121 730.15 120.95 731.28 122.07 731.13 121.15 731.79 121.97 732.58 120.88 732.28 120.77 733.4 120.33 732.36 119.38 732.98 119.92 731.99 118.84 731.63 119.96 731.43 119.56 730.37 120.41 731.12 121 730.15"/>
      <polygon class="st8" points="216.38 757.92 222.33 758.19 221.54 752.28 225.04 757.11 229.17 752.81 227.58 758.55 233.51 759.1 228.03 761.43 231.3 766.41 226.06 763.59 224.2 769.25 223.14 763.39 217.56 765.47 221.48 760.98 216.38 757.92"/>
      <polygon class="st8" points="325.82 721.94 331.77 722.21 330.99 716.3 334.49 721.12 338.61 716.83 337.02 722.57 342.96 723.12 337.48 725.45 340.75 730.43 335.5 727.61 333.65 733.27 332.59 727.41 327.01 729.49 330.93 725 325.82 721.94"/>
      <polygon class="st8" points="117.78 535.85 123.73 536.12 122.95 530.21 126.45 535.04 130.57 530.74 128.98 536.48 134.92 537.03 129.44 539.37 132.71 544.35 127.46 541.52 125.61 547.18 124.55 541.32 118.97 543.4 122.89 538.92 117.78 535.85"/>
      <polygon class="st8" points="290.43 737.9 296.39 738.18 295.6 732.27 299.1 737.09 303.22 732.79 301.63 738.54 307.57 739.08 302.09 741.42 305.36 746.4 300.11 743.57 298.26 749.24 297.2 743.37 291.62 745.46 295.54 740.97 290.43 737.9"/>
      <polygon class="st8" points="237.27 771.5 244.75 771.84 243.76 764.41 248.16 770.48 253.35 765.07 251.35 772.29 258.81 772.98 251.92 775.92 256.03 782.18 249.44 778.62 247.11 785.74 245.77 778.37 238.75 780.99 243.69 775.35 237.27 771.5"/>
      <polygon class="st8" points="178.72 776.9 186.2 777.24 185.21 769.82 189.61 775.88 194.8 770.48 192.8 777.7 200.26 778.39 193.37 781.33 197.48 787.59 190.89 784.03 188.56 791.15 187.22 783.78 180.21 786.4 185.14 780.76 178.72 776.9"/>
      <polygon class="st8" points="216.16 806.1 223.64 806.44 222.65 799.02 227.05 805.08 232.24 799.68 230.24 806.9 237.7 807.59 230.81 810.52 234.92 816.78 228.33 813.23 226 820.35 224.67 812.98 217.65 815.59 222.58 809.96 216.16 806.1"/>
      <polygon class="st8" points="241.55 747.57 244.22 747.69 243.87 745.04 245.44 747.21 247.29 745.28 246.58 747.85 249.24 748.1 246.78 749.15 248.25 751.38 245.9 750.11 245.06 752.65 244.59 750.02 242.08 750.96 243.85 748.94 241.55 747.57"/>
      <polygon class="st8" points="302.29 709.09 304.96 709.21 304.6 706.57 306.17 708.73 308.03 706.8 307.31 709.38 309.97 709.62 307.52 710.67 308.98 712.91 306.63 711.64 305.8 714.18 305.32 711.55 302.82 712.48 304.58 710.47 302.29 709.09"/>
      <polygon class="st8" points="352.45 736.45 355.12 736.57 354.77 733.92 356.34 736.09 358.19 734.16 357.48 736.74 360.14 736.98 357.68 738.03 359.15 740.26 356.8 738.99 355.96 741.54 355.49 738.9 352.98 739.84 354.74 737.83 352.45 736.45"/>
      <polygon class="st8" points="273.13 761.89 275.8 762.01 275.44 759.36 277.01 761.53 278.87 759.6 278.15 762.17 280.81 762.42 278.36 763.47 279.82 765.7 277.47 764.43 276.64 766.97 276.16 764.34 273.66 765.28 275.42 763.27 273.13 761.89"/>
      <polygon class="st8" points="259.1 808.02 261.77 808.15 261.42 805.5 262.99 807.66 264.84 805.73 264.12 808.31 266.79 808.55 264.33 809.6 265.79 811.84 263.44 810.57 262.61 813.11 262.13 810.48 259.63 811.41 261.39 809.4 259.1 808.02"/>
      <polygon class="st8" points="232.31 713.31 234.98 713.43 234.63 710.78 236.2 712.95 238.05 711.02 237.34 713.6 240 713.84 237.54 714.89 239.01 717.12 236.66 715.86 235.82 718.4 235.35 715.77 232.84 716.7 234.6 714.69 232.31 713.31"/>
      <polygon class="st8" points="278.04 660.73 280.71 660.85 280.36 658.2 281.93 660.36 283.78 658.43 283.07 661.01 285.73 661.26 283.27 662.3 284.74 664.54 282.39 663.27 281.55 665.81 281.08 663.18 278.57 664.11 280.33 662.1 278.04 660.73"/>
      <polygon class="st8" points="232.25 558.85 234.92 558.97 234.57 556.32 236.14 558.49 237.99 556.56 237.28 559.14 239.94 559.38 237.48 560.43 238.95 562.66 236.6 561.4 235.76 563.94 235.29 561.31 232.78 562.24 234.54 560.23 232.25 558.85"/>
      <polygon class="st8" points="125.68 496.67 128.35 496.79 127.99 494.14 129.56 496.3 131.42 494.38 130.7 496.95 133.36 497.2 130.9 498.25 132.37 500.48 130.02 499.21 129.19 501.75 128.71 499.12 126.21 500.06 127.97 498.04 125.68 496.67"/>
      <polygon class="st8" points="194.24 747.96 195.8 748.03 195.59 746.48 196.51 747.75 197.6 746.62 197.18 748.13 198.74 748.27 197.3 748.89 198.16 750.19 196.78 749.45 196.29 750.94 196.01 749.4 194.55 749.95 195.58 748.77 194.24 747.96"/>
      <polygon class="st8" points="211.44 730.29 213 730.37 212.79 728.82 213.71 730.08 214.8 728.95 214.38 730.46 215.94 730.6 214.5 731.22 215.36 732.53 213.98 731.78 213.49 733.27 213.22 731.73 211.75 732.28 212.78 731.1 211.44 730.29"/>
      <polygon class="st8" points="245.62 659.42 247.18 659.49 246.97 657.94 247.89 659.21 248.98 658.08 248.56 659.59 250.12 659.73 248.68 660.34 249.54 661.65 248.16 660.91 247.67 662.39 247.39 660.86 245.93 661.4 246.96 660.23 245.62 659.42"/>
      <polygon class="st8" points="198.01 535.2 199.57 535.27 199.36 533.72 200.28 534.99 201.37 533.86 200.95 535.37 202.51 535.51 201.07 536.12 201.93 537.43 200.55 536.69 200.06 538.18 199.79 536.64 198.32 537.18 199.35 536.01 198.01 535.2"/>
      <polygon class="st8" points="268.59 642.6 270.15 642.67 269.94 641.12 270.86 642.39 271.94 641.26 271.53 642.77 273.08 642.91 271.64 643.52 272.5 644.83 271.13 644.09 270.64 645.58 270.36 644.04 268.9 644.58 269.93 643.41 268.59 642.6"/>
      <polygon class="st8" points="113.28 470.06 114.85 470.13 114.64 468.58 115.56 469.85 116.64 468.72 116.22 470.23 117.78 470.37 116.34 470.98 117.2 472.29 115.83 471.55 115.34 473.03 115.06 471.49 113.6 472.04 114.63 470.86 113.28 470.06"/>
      <polygon class="st8" points="217.25 779.56 218.38 779.61 218.23 778.49 218.9 779.41 219.68 778.59 219.38 779.68 220.51 779.79 219.47 780.23 220.09 781.18 219.09 780.64 218.74 781.72 218.54 780.6 217.48 781 218.22 780.14 217.25 779.56"/>
      <polygon class="st8" points="213.98 646 213.71 651.95 219.62 651.16 214.8 654.66 219.09 658.79 213.35 657.2 212.8 663.13 210.47 657.65 205.49 660.92 208.31 655.68 202.65 653.82 208.52 652.77 206.43 647.18 210.92 651.11 213.98 646"/>
      <polygon class="st8" points="233.81 600.2 233.54 606.16 239.45 605.37 234.63 608.87 238.92 612.99 233.18 611.4 232.63 617.34 230.3 611.86 225.32 615.13 228.14 609.88 222.48 608.03 228.34 606.97 226.26 601.39 230.75 605.31 233.81 600.2"/>
      <polygon class="st8" points="200.41 666.89 200.06 674.37 207.49 673.38 201.42 677.78 206.83 682.97 199.61 680.97 198.92 688.43 195.98 681.54 189.72 685.65 193.28 679.06 186.16 676.73 193.53 675.4 190.91 668.38 196.55 673.31 200.41 666.89"/>
      <polygon class="st8" points="136.35 594.58 136 602.06 143.43 601.07 137.37 605.47 142.77 610.66 135.55 608.66 134.86 616.12 131.92 609.23 125.66 613.34 129.22 606.75 122.1 604.42 129.47 603.09 126.85 596.07 132.49 601 136.35 594.58"/>
      <polygon class="st8" points="322.6 647.34 322.26 654.82 329.68 653.83 323.62 658.23 329.02 663.42 321.8 661.42 321.12 668.88 318.18 661.99 311.92 666.1 315.47 659.51 308.35 657.18 315.72 655.85 313.11 648.83 318.74 653.76 322.6 647.34"/>
      <polygon class="st8" points="273.36 592.12 273.02 599.6 280.44 598.61 274.38 603.01 279.78 608.2 272.56 606.2 271.87 613.66 268.93 606.77 262.67 610.88 266.23 604.29 259.11 601.96 266.48 600.63 263.86 593.61 269.5 598.54 273.36 592.12"/>
      <polygon class="st8" points="276.33 705.7 275.99 713.18 283.41 712.19 277.35 716.59 282.75 721.78 275.53 719.78 274.84 727.24 271.9 720.35 265.64 724.46 269.2 717.87 262.08 715.54 269.45 714.21 266.83 707.19 272.47 712.12 276.33 705.7"/>
      <polygon class="st8" points="333.65 747.49 333.3 754.97 340.73 753.98 334.67 758.38 340.07 763.57 332.85 761.57 332.16 769.03 329.22 762.14 322.96 766.25 326.52 759.66 319.4 757.33 326.77 756 324.15 748.98 329.79 753.91 333.65 747.49"/>
      <polygon class="st8" points="300.45 787.5 300.11 794.98 307.53 793.99 301.47 798.39 306.87 803.58 299.65 801.58 298.97 809.04 296.03 802.15 289.77 806.26 293.32 799.67 286.2 797.34 293.57 796.01 290.96 788.99 296.59 793.92 300.45 787.5"/>
      <polygon class="st8" points="224.33 671.17 224.21 673.85 226.86 673.49 224.7 675.06 226.62 676.91 224.05 676.2 223.8 678.86 222.75 676.4 220.52 677.87 221.79 675.52 219.25 674.69 221.88 674.21 220.94 671.71 222.96 673.47 224.33 671.17"/>
      <polygon class="st8" points="178.46 500.12 178.34 502.8 180.99 502.44 178.82 504.01 180.75 505.86 178.18 505.15 177.93 507.81 176.88 505.35 174.65 506.82 175.92 504.47 173.38 503.64 176.01 503.16 175.07 500.66 177.08 502.42 178.46 500.12"/>
      <polygon class="st8" points="155.29 542.48 155.17 545.15 157.82 544.8 155.65 546.37 157.58 548.22 155 547.51 154.76 550.17 153.71 547.71 151.48 549.18 152.74 546.83 150.2 545.99 152.83 545.52 151.9 543.01 153.91 544.77 155.29 542.48"/>
      <polygon class="st8" points="335.53 686.46 335.41 689.14 338.06 688.78 335.89 690.35 337.82 692.2 335.25 691.49 335 694.15 333.95 691.69 331.72 693.16 332.99 690.81 330.45 689.98 333.08 689.5 332.14 687 334.16 688.76 335.53 686.46"/>
      <polygon class="st8" points="233.92 493.97 233.79 496.64 236.44 496.28 234.28 497.85 236.21 499.7 233.63 498.99 233.39 501.65 232.34 499.19 230.1 500.66 231.37 498.31 228.83 497.48 231.46 497 230.53 494.5 232.54 496.26 233.92 493.97"/>
      <polygon class="st8" points="202.29 703.76 202.17 706.43 204.82 706.07 202.65 707.64 204.58 709.5 202.01 708.78 201.76 711.44 200.71 708.99 198.48 710.45 199.75 708.1 197.21 707.27 199.84 706.79 198.9 704.29 200.91 706.05 202.29 703.76"/>
      <polygon class="st8" points="104.71 588.9 104.59 591.57 107.24 591.22 105.07 592.79 107 594.64 104.43 593.93 104.18 596.59 103.13 594.13 100.9 595.6 102.17 593.24 99.63 592.41 102.26 591.94 101.32 589.43 103.33 591.19 104.71 588.9"/>
      <polygon class="st8" points="192.34 646.87 192.29 648 193.41 647.85 192.49 648.52 193.31 649.3 192.22 649 192.12 650.13 191.67 649.09 190.72 649.71 191.26 648.71 190.19 648.36 191.3 648.16 190.9 647.1 191.76 647.84 192.34 646.87"/>
      <polygon class="st8" points="762.78 674.89 768.74 674.62 767.95 680.53 771.45 675.7 775.58 680 773.99 674.26 779.92 673.71 774.44 671.37 777.71 666.39 772.47 669.22 770.61 663.56 769.55 669.42 763.97 667.34 767.89 671.82 762.78 674.89"/>
      <polygon class="st8" points="783.67 661.31 791.16 660.97 790.17 668.39 794.57 662.33 799.75 667.73 797.76 660.51 805.22 659.83 798.32 656.89 802.44 650.63 795.84 654.18 793.51 647.06 792.18 654.44 785.16 651.82 790.1 657.46 783.67 661.31"/>
      <polygon class="st8" points="725.13 655.9 732.61 655.56 731.62 662.99 736.02 656.92 741.21 662.33 739.21 655.11 746.67 654.42 739.78 651.48 743.89 645.22 737.3 648.78 734.97 641.66 733.63 649.03 726.62 646.41 731.55 652.05 725.13 655.9"/>
      <polygon class="st8" points="780.22 615.56 787.71 615.22 786.72 622.64 791.12 616.58 796.3 621.98 794.3 614.76 801.76 614.07 794.87 611.14 798.99 604.88 792.39 608.43 790.06 601.31 788.73 608.68 781.71 606.07 786.65 611.7 780.22 615.56"/>
      <polygon class="st8" points="696.08 609.79 703.56 609.45 702.57 616.87 706.97 610.81 712.16 616.21 710.16 608.99 717.62 608.31 710.73 605.37 714.84 599.11 708.25 602.66 705.92 595.54 704.59 602.92 697.57 600.3 702.5 605.94 696.08 609.79"/>
      <polygon class="st8" points="787.96 685.24 790.63 685.12 790.28 687.77 791.85 685.6 793.7 687.53 792.99 684.95 795.65 684.71 793.19 683.66 794.66 681.43 792.31 682.69 791.47 680.15 791 682.78 788.49 681.85 790.25 683.86 787.96 685.24"/>
      <polygon class="st8" points="779.17 701.87 781.84 701.75 781.49 704.4 783.06 702.24 784.91 704.17 784.2 701.59 786.86 701.35 784.4 700.3 785.87 698.06 783.52 699.33 782.68 696.79 782.21 699.42 779.7 698.49 781.46 700.5 779.17 701.87"/>
      <polygon class="st8" points="752.43 544.4 755.1 544.28 754.74 546.93 756.31 544.77 758.16 546.7 757.45 544.12 760.11 543.88 757.65 542.83 759.12 540.59 756.77 541.86 755.94 539.32 755.46 541.95 752.96 541.02 754.72 543.03 752.43 544.4"/>
      <polygon class="st8" points="740.65 684.84 742.21 684.77 742 686.32 742.92 685.06 744 686.18 743.59 684.68 745.14 684.53 743.71 683.92 744.56 682.61 743.19 683.36 742.7 681.87 742.42 683.41 740.96 682.86 741.99 684.04 740.65 684.84"/>
      <polygon class="st8" points="763.66 653.25 764.79 653.19 764.64 654.32 765.31 653.4 766.09 654.22 765.79 653.13 766.92 653.02 765.88 652.58 766.5 651.63 765.5 652.17 765.15 651.09 764.95 652.21 763.88 651.81 764.63 652.66 763.66 653.25"/>
      <polygon class="st8" points="789.2 516.36 790.33 516.31 790.18 517.44 790.84 516.52 791.63 517.34 791.33 516.24 792.45 516.14 791.41 515.69 792.03 514.75 791.04 515.29 790.68 514.21 790.48 515.32 789.42 514.93 790.17 515.78 789.2 516.36"/>
      <polygon class="st8" points="729.43 569.42 730.56 569.37 730.41 570.49 731.07 569.57 731.86 570.39 731.56 569.3 732.68 569.19 731.64 568.75 732.26 567.8 731.27 568.34 730.91 567.26 730.71 568.38 729.65 567.98 730.4 568.83 729.43 569.42"/>
      <polygon class="st8" points="737.98 729.3 738.26 735.25 732.35 734.46 737.17 737.96 732.87 742.09 738.62 740.5 739.16 746.43 741.5 740.95 746.48 744.22 743.65 738.98 749.32 737.12 743.45 736.06 745.54 730.48 741.05 734.41 737.98 729.3"/>
      <polygon class="st8" points="638.4 675.61 638.67 681.56 632.76 680.77 637.58 684.27 633.29 688.4 639.03 686.81 639.58 692.74 641.91 687.26 646.89 690.53 644.07 685.29 649.73 683.44 643.87 682.38 645.95 676.79 641.46 680.72 638.4 675.61"/>
      <polygon class="st8" points="593.23 676.87 593.5 682.83 587.59 682.04 592.41 685.54 588.12 689.66 593.86 688.07 594.41 694.01 596.74 688.53 601.72 691.8 598.9 686.55 604.56 684.7 598.7 683.64 600.78 678.06 596.29 681.98 593.23 676.87"/>
      <polygon class="st8" points="751.56 750.19 751.91 757.67 744.48 756.68 750.54 761.08 745.14 766.27 752.36 764.27 753.05 771.73 755.99 764.84 762.25 768.95 758.69 762.36 765.81 760.03 758.44 758.69 761.06 751.68 755.42 756.61 751.56 750.19"/>
      <polygon class="st8" points="756.97 691.64 757.31 699.12 749.89 698.13 755.95 702.53 750.55 707.72 757.77 705.72 758.45 713.18 761.39 706.29 767.65 710.4 764.1 703.81 771.22 701.48 763.85 700.15 766.46 693.13 760.83 698.06 756.97 691.64"/>
      <polygon class="st8" points="727.64 754.47 727.76 757.14 725.11 756.79 727.27 758.36 725.34 760.21 727.92 759.5 728.17 762.16 729.21 759.7 731.45 761.17 730.18 758.82 732.72 757.99 730.09 757.51 731.02 755.01 729.01 756.77 727.64 754.47"/>
      <polygon class="st8" points="736.33 780.05 736.45 782.72 733.8 782.36 735.96 783.93 734.03 785.78 736.61 785.07 736.86 787.73 737.9 785.27 740.14 786.74 738.87 784.39 741.41 783.56 738.78 783.08 739.71 780.58 737.7 782.34 736.33 780.05"/>
      <polygon class="st8" points="728.03 707.16 728.1 708.72 726.55 708.52 727.82 709.43 726.69 710.52 728.2 710.1 728.34 711.66 728.95 710.22 730.26 711.08 729.52 709.7 731.01 709.21 729.47 708.94 730.01 707.47 728.84 708.5 728.03 707.16"/>
      <polygon class="st8" points="759.63 730.17 759.68 731.3 758.56 731.15 759.47 731.82 758.66 732.6 759.75 732.3 759.85 733.43 760.3 732.39 761.24 733.01 760.71 732.01 761.78 731.66 760.67 731.46 761.06 730.4 760.21 731.14 759.63 730.17"/>
      <polygon class="st8" points="779.74 730.15 779.79 731.28 778.67 731.13 779.59 731.79 778.77 732.58 779.86 732.28 779.96 733.4 780.41 732.36 781.36 732.98 780.82 731.99 781.89 731.63 780.78 731.43 781.18 730.37 780.32 731.12 779.74 730.15"/>
      <polygon class="st8" points="684.36 757.92 678.41 758.19 679.2 752.28 675.7 757.11 671.57 752.81 673.16 758.55 667.23 759.1 672.71 761.43 669.44 766.41 674.68 763.59 676.53 769.25 677.59 763.39 683.18 765.47 679.25 760.98 684.36 757.92"/>
      <polygon class="st8" points="574.92 721.94 568.96 722.21 569.75 716.3 566.25 721.12 562.13 716.83 563.71 722.57 557.78 723.12 563.26 725.45 559.99 730.43 565.24 727.61 567.09 733.27 568.15 727.41 573.73 729.49 569.81 725 574.92 721.94"/>
      <polygon class="st8" points="610.3 737.9 604.35 738.18 605.14 732.27 601.64 737.09 597.51 732.79 599.1 738.54 593.17 739.08 598.65 741.42 595.38 746.4 600.62 743.57 602.48 749.24 603.54 743.37 609.12 745.46 605.2 740.97 610.3 737.9"/>
      <polygon class="st8" points="663.47 771.5 655.99 771.84 656.98 764.41 652.58 770.48 647.39 765.07 649.39 772.29 641.93 772.98 648.82 775.92 644.71 782.18 651.3 778.62 653.63 785.74 654.96 778.37 661.98 780.99 657.05 775.35 663.47 771.5"/>
      <polygon class="st8" points="722.02 776.9 714.54 777.24 715.53 769.82 711.13 775.88 705.94 770.48 707.94 777.7 700.48 778.39 707.37 781.33 703.26 787.59 709.85 784.03 712.18 791.15 713.51 783.78 720.53 786.4 715.6 780.76 722.02 776.9"/>
      <polygon class="st8" points="684.58 806.1 677.1 806.44 678.08 799.02 673.69 805.08 668.5 799.68 670.5 806.9 663.04 807.59 669.93 810.52 665.81 816.78 672.41 813.23 674.74 820.35 676.07 812.98 683.09 815.59 678.16 809.96 684.58 806.1"/>
      <polygon class="st8" points="659.18 747.57 656.51 747.69 656.87 745.04 655.3 747.21 653.45 745.28 654.16 747.85 651.5 748.1 653.96 749.15 652.49 751.38 654.84 750.11 655.67 752.65 656.15 750.02 658.65 750.96 656.89 748.94 659.18 747.57"/>
      <polygon class="st8" points="598.45 709.09 595.78 709.21 596.13 706.57 594.56 708.73 592.71 706.8 593.43 709.38 590.76 709.62 593.22 710.67 591.75 712.91 594.11 711.64 594.94 714.18 595.41 711.55 597.92 712.48 596.16 710.47 598.45 709.09"/>
      <polygon class="st8" points="548.29 736.45 545.61 736.57 545.97 733.92 544.4 736.09 542.55 734.16 543.26 736.74 540.6 736.98 543.06 738.03 541.59 740.26 543.94 738.99 544.77 741.54 545.25 738.9 547.75 739.84 545.99 737.83 548.29 736.45"/>
      <polygon class="st8" points="627.61 761.89 624.94 762.01 625.29 759.36 623.72 761.53 621.87 759.6 622.59 762.17 619.92 762.42 622.38 763.47 620.91 765.7 623.27 764.43 624.1 766.97 624.57 764.34 627.08 765.28 625.32 763.27 627.61 761.89"/>
      <polygon class="st8" points="641.64 808.02 638.97 808.15 639.32 805.5 637.75 807.66 635.9 805.73 636.61 808.31 633.95 808.55 636.41 809.6 634.94 811.84 637.3 810.57 638.13 813.11 638.6 810.48 641.11 811.41 639.35 809.4 641.64 808.02"/>
      <polygon class="st8" points="668.43 713.31 665.75 713.43 666.11 710.78 664.54 712.95 662.69 711.02 663.4 713.6 660.74 713.84 663.2 714.89 661.73 717.12 664.08 715.86 664.91 718.4 665.39 715.77 667.89 716.7 666.13 714.69 668.43 713.31"/>
      <polygon class="st8" points="622.69 660.73 620.02 660.85 620.38 658.2 618.81 660.36 616.96 658.43 617.67 661.01 615.01 661.26 617.47 662.3 616 664.54 618.35 663.27 619.18 665.81 619.66 663.18 622.16 664.11 620.4 662.1 622.69 660.73"/>
      <polygon class="st8" points="706.5 747.96 704.94 748.03 705.14 746.48 704.23 747.75 703.14 746.62 703.56 748.13 702 748.27 703.44 748.89 702.58 750.19 703.96 749.45 704.44 750.94 704.72 749.4 706.19 749.95 705.16 748.77 706.5 747.96"/>
      <polygon class="st8" points="689.3 730.29 687.74 730.37 687.94 728.82 687.02 730.08 685.94 728.95 686.36 730.46 684.8 730.6 686.24 731.22 685.38 732.53 686.76 731.78 687.24 733.27 687.52 731.73 688.99 732.28 687.96 731.1 689.3 730.29"/>
      <polygon class="st8" points="655.12 659.42 653.56 659.49 653.76 657.94 652.85 659.21 651.76 658.08 652.18 659.59 650.62 659.73 652.06 660.34 651.2 661.65 652.58 660.91 653.07 662.39 653.34 660.86 654.81 661.4 653.78 660.23 655.12 659.42"/>
      <polygon class="st8" points="632.15 642.6 630.59 642.67 630.8 641.12 629.88 642.39 628.8 641.26 629.21 642.77 627.66 642.91 629.09 643.52 628.24 644.83 629.61 644.09 630.1 645.58 630.38 644.04 631.84 644.58 630.81 643.41 632.15 642.6"/>
      <polygon class="st8" points="683.49 779.56 682.36 779.61 682.51 778.49 681.84 779.41 681.06 778.59 681.36 779.68 680.23 779.79 681.27 780.23 680.65 781.18 681.65 780.64 682 781.72 682.2 780.6 683.26 781 682.52 780.14 683.49 779.56"/>
      <polygon class="st8" points="686.75 646 687.03 651.95 681.12 651.16 685.94 654.66 681.64 658.79 687.39 657.2 687.93 663.13 690.27 657.65 695.25 660.92 692.42 655.68 698.09 653.82 692.22 652.77 694.3 647.18 689.82 651.11 686.75 646"/>
      <polygon class="st8" points="748.5 589.46 748.77 595.41 742.86 594.62 747.68 598.12 743.39 602.25 749.13 600.66 749.68 606.59 752.01 601.11 756.99 604.38 754.17 599.14 759.83 597.28 753.96 596.22 756.05 590.64 751.56 594.57 748.5 589.46"/>
      <polygon class="st8" points="630.9 603.54 631.17 609.5 625.26 608.71 630.09 612.21 625.79 616.33 631.53 614.74 632.08 620.68 634.41 615.2 639.39 618.47 636.57 613.22 642.23 611.37 636.37 610.31 638.45 604.73 633.96 608.65 630.9 603.54"/>
      <polygon class="st8" points="700.33 666.89 700.67 674.37 693.25 673.38 699.31 677.78 693.91 682.97 701.13 680.97 701.82 688.43 704.75 681.54 711.02 685.65 707.46 679.06 714.58 676.73 707.21 675.4 709.83 668.38 704.19 673.31 700.33 666.89"/>
      <polygon class="st8" points="578.14 647.34 578.48 654.82 571.05 653.83 577.12 658.23 571.72 663.42 578.93 661.42 579.62 668.88 582.56 661.99 588.82 666.1 585.27 659.51 592.39 657.18 585.01 655.85 587.63 648.83 581.99 653.76 578.14 647.34"/>
      <polygon class="st8" points="624.41 705.7 624.75 713.18 617.33 712.19 623.39 716.59 617.99 721.78 625.21 719.78 625.89 727.24 628.83 720.35 635.09 724.46 631.54 717.87 638.66 715.54 631.29 714.21 633.9 707.19 628.27 712.12 624.41 705.7"/>
      <polygon class="st8" points="567.09 747.49 567.43 754.97 560.01 753.98 566.07 758.38 560.67 763.57 567.89 761.57 568.57 769.03 571.51 762.14 577.77 766.25 574.22 759.66 581.34 757.33 573.97 756 576.58 748.98 570.95 753.91 567.09 747.49"/>
      <polygon class="st8" points="600.29 787.5 600.63 794.98 593.2 793.99 599.27 798.39 593.86 803.58 601.08 801.58 601.77 809.04 604.71 802.15 610.97 806.26 607.42 799.67 614.53 797.34 607.16 796.01 609.78 788.99 604.14 793.92 600.29 787.5"/>
      <polygon class="st8" points="676.41 671.17 676.53 673.85 673.88 673.49 676.04 675.06 674.11 676.91 676.69 676.2 676.94 678.86 677.98 676.4 680.22 677.87 678.95 675.52 681.49 674.69 678.86 674.21 679.79 671.71 677.78 673.47 676.41 671.17"/>
      <polygon class="st8" points="775.14 576.1 775.26 578.77 772.61 578.42 774.78 579.99 772.85 581.84 775.42 581.13 775.67 583.79 776.72 581.33 778.95 582.8 777.68 580.45 780.22 579.62 777.59 579.14 778.53 576.64 776.52 578.4 775.14 576.1"/>
      <polygon class="st8" points="565.21 686.46 565.33 689.14 562.68 688.78 564.84 690.35 562.91 692.2 565.49 691.49 565.74 694.15 566.78 691.69 569.02 693.16 567.75 690.81 570.29 689.98 567.66 689.5 568.59 687 566.58 688.76 565.21 686.46"/>
      <polygon class="st8" points="698.45 703.76 698.57 706.43 695.92 706.07 698.08 707.64 696.16 709.5 698.73 708.78 698.98 711.44 700.03 708.99 702.26 710.45 700.99 708.1 703.53 707.27 700.9 706.79 701.84 704.29 699.82 706.05 698.45 703.76"/>
      <polygon class="st8" points="593.54 615.97 587.59 616.24 588.37 610.33 584.87 615.16 580.75 610.86 582.34 616.6 576.4 617.15 581.88 619.48 578.61 624.46 583.86 621.64 585.71 627.3 586.77 621.44 592.35 623.52 588.43 619.03 593.54 615.97"/>
      <polygon class="st8" points="610.84 639.95 608.17 640.07 608.53 637.42 606.96 639.59 605.11 637.66 605.82 640.24 603.16 640.48 605.62 641.53 604.15 643.76 606.5 642.5 607.33 645.04 607.81 642.41 610.31 643.34 608.55 641.33 610.84 639.95"/>
      <polygon class="st8" points="616.31 584.46 613.64 584.58 614 581.93 612.43 584.1 610.58 582.17 611.29 584.75 608.63 584.99 611.09 586.04 609.62 588.27 611.97 587 612.8 589.55 613.28 586.91 615.78 587.85 614.02 585.84 616.31 584.46"/>
      <polygon class="st8" points="672.53 608.36 670.97 608.43 671.18 606.88 670.26 608.14 669.18 607.02 669.59 608.52 668.04 608.67 669.47 609.28 668.62 610.59 669.99 609.85 670.48 611.33 670.76 609.79 672.22 610.34 671.19 609.16 672.53 608.36"/>
      <polygon class="st8" points="653.53 572.32 651.97 572.39 652.18 570.84 651.26 572.11 650.18 570.98 650.59 572.49 649.04 572.63 650.48 573.24 649.62 574.55 650.99 573.81 651.48 575.3 651.76 573.76 653.22 574.3 652.19 573.13 653.53 572.32"/>
      <polygon class="st8" points="678.14 538.65 676.58 538.72 676.79 537.17 675.87 538.44 674.79 537.31 675.2 538.82 673.65 538.96 675.08 539.58 674.23 540.88 675.6 540.14 676.09 541.63 676.37 540.09 677.83 540.63 676.8 539.46 678.14 538.65"/>
      <polygon class="st8" points="681.68 581.82 681.8 584.49 679.15 584.14 681.32 585.71 679.39 587.56 681.97 586.85 682.21 589.51 683.26 587.05 685.49 588.52 684.23 586.16 686.77 585.33 684.14 584.86 685.07 582.35 683.06 584.11 681.68 581.82"/>
      <polygon class="st8" points="708.4 646.87 708.45 648 707.33 647.85 708.24 648.52 707.43 649.3 708.52 649 708.62 650.13 709.07 649.09 710.01 649.71 709.48 648.71 710.55 648.36 709.44 648.16 709.83 647.1 708.98 647.84 708.4 646.87"/>
      <polygon class="st8" points="717.54 505.4 717.59 506.54 716.47 506.39 717.39 507.05 716.57 507.84 717.66 507.53 717.77 508.66 718.21 507.62 719.16 508.24 718.62 507.24 719.7 506.89 718.58 506.69 718.98 505.63 718.12 506.38 717.54 505.4"/>
    </g>
  </g>
  <g>
    <path class="st4" d="M951.58,104.13c-74.84,81.98-63.07,167.55-1.56,255.19,28.24,49.22,25.68,100.08-.94,153.24-34.4,57.83-27.09,121.66-1.15,188.16,11.84,27.61,10.28,71.94,4.93,121.02"/>
    <path class="st6" d="M946.9,869.67c-5.61-23.57-16.46-53.3-29.46-72.49l36.09,18.28,39.43-9.04c-17.24,15.49-34.94,41.72-46.06,63.25Z"/>
  </g>
</svg>